Land_normalized_Motion_pl07
version=1
nRows=18
nColumns=43
inDegrees=yes
endheader
time		pelvis_tilt		pelvis_list		pelvis_rotation		pelvis_tx		pelvis_ty		pelvis_tz		hip_flexion_r		hip_adduction_r		hip_rotation_r		knee_angle_r		ankle_angle_r		subtalar_angle_r		mtp_angle_r		hip_flexion_l		hip_adduction_l		hip_rotation_l		knee_angle_l		ankle_angle_l		subtalar_angle_l		mtp_angle_l		lumbar_extension		lumbar_bending		lumbar_rotation		neck_flexion		neck_lateral_bending		neck_rotation		arm_flex_r		arm_add_r		arm_rot_r		elbow_flex_r		pro_sup_r		wrist_flex_r		wrist_dev_r		hand_finger_flex_r		arm_flex_l		arm_add_l		arm_rot_l		elbow_flex_l		pro_sup_l		wrist_flex_l		wrist_dev_l		hand_finger_flex_l		
1.103864		-4.503443		24.284351		94.137734		-0.013836		0.422860		0.373068		75.283215		-4.018826		2.152357		-145.884163		10.075310		-1.802557		34.027084		69.904136		-0.374337		-3.803857		-141.635989		20.035407		-14.544467		26.862721		-76.382294		1.643885		-1.118035		5.538319		-0.506087		-2.302047		92.110831		-33.859042		38.173099		57.170335		96.135298		-32.143656		-4.606023		32.934842		79.858072		-32.281211		22.666600		81.862553		-69.016604		-32.678164		-18.285124		-90.000210		
1.106515		-4.478610		24.228862		94.091254		-0.013508		0.420275		0.372308		75.634186		-3.898918		2.140720		-146.260409		10.250668		-1.718904		34.039271		70.180411		-0.434195		-3.842308		-142.017467		20.213102		-14.732016		26.703744		-76.664192		1.644966		-1.011103		5.911930		-0.499837		-2.307714		93.095439		-32.975731		37.910177		57.118339		96.343421		-31.780433		-5.099564		32.584013		81.370664		-31.754570		23.744551		82.050363		-68.570402		-31.468142		-18.173073		-90.000210		
1.109167		-4.455292		24.133855		94.053257		-0.013311		0.417821		0.371577		76.010017		-3.805289		2.148787		-146.608221		10.392292		-1.665221		34.048465		70.476769		-0.465178		-3.910271		-142.372549		20.434473		-14.903563		26.596839		-76.914008		1.681319		-0.881918		6.273599		-0.575280		-2.308809		94.059114		-32.094783		37.634772		57.096122		96.483396		-31.557149		-5.429296		32.321728		82.726380		-31.103714		24.499210		82.216466		-68.258593		-30.618831		-18.082991		-90.000210		
1.111818		-4.388825		23.951599		94.006746		-0.013058		0.415320		0.370855		76.474658		-3.698060		2.108715		-146.942234		10.558887		-1.575815		34.055054		70.851261		-0.513759		-3.966420		-142.714019		20.802257		-15.223177		26.499588		-77.091708		1.737074		-0.763128		6.693027		-0.718444		-2.385437		94.980830		-31.207727		37.374064		57.151060		96.647331		-31.404915		-5.682261		32.172788		84.139837		-30.605209		25.345130		82.424164		-68.037793		-30.152673		-18.012033		-90.000210		
1.114470		-4.360890		23.803031		93.984391		-0.012956		0.413101		0.370199		76.881934		-3.631072		2.132777		-147.238927		10.662228		-1.528881		34.058186		71.183606		-0.522883		-4.047447		-143.023878		20.976791		-15.397746		26.431705		-77.298242		1.803202		-0.621380		7.058135		-0.802755		-2.382914		95.883331		-30.315959		37.068786		57.129076		96.727934		-31.357142		-5.841474		32.055171		85.337391		-29.858653		25.782709		82.549777		-67.897456		-29.782608		-17.979259		-90.000210		
1.117121		-4.314267		23.603772		93.950543		-0.012636		0.410880		0.369547		77.335055		-3.520574		2.135850		-147.533773		10.829054		-1.344756		34.034125		71.552644		-0.565122		-4.141859		-143.316146		21.179395		-15.916187		26.150042		-77.468592		1.814831		-0.521692		7.458172		-0.763908		-2.445468		96.621784		-29.413737		36.513574		57.123992		97.032794		-31.114949		-6.405364		31.878651		86.783857		-29.491191		26.921696		82.799656		-67.565920		-28.913601		-17.930895		-90.000210		
1.119773		-4.315423		23.445255		93.948044		-0.012609		0.408943		0.368945		77.730764		-3.447939		2.203023		-147.794117		10.898691		-1.303988		34.025753		71.867725		-0.538657		-4.264724		-143.580321		21.289949		-16.094734		26.048441		-77.660880		1.887601		-0.390510		7.757972		-0.828533		-2.417686		97.436722		-28.535344		36.156724		57.085924		97.107994		-31.078582		-6.581359		31.775047		87.829451		-28.697131		27.196780		82.881699		-67.446232		-28.535006		-17.923344		-90.000210		
1.122424		-4.493531		23.166933		93.990121		-0.012384		0.406824		0.368273		78.293698		-3.369702		2.485822		-148.103110		11.059839		-1.037653		33.872375		72.290967		-0.460499		-4.676207		-143.807396		21.161723		-17.040729		25.086321		-77.712607		1.815862		-0.534695		7.984272		-0.676977		-2.360187		97.928083		-27.463335		35.121803		56.894062		97.794866		-30.395292		-7.614608		31.441699		89.059755		-28.367227		28.303537		83.112774		-66.933922		-26.936264		-17.905249		-90.000210		
1.125076		-4.466872		22.961352		93.979161		-0.012385		0.405051		0.367745		78.720804		-3.285708		2.542203		-148.327606		11.109006		-1.003636		33.857359		72.606285		-0.429932		-4.813632		-144.024423		21.461772		-17.260452		24.974115		-77.857121		1.912261		-0.388089		8.293706		-0.848639		-2.385063		98.697456		-26.649002		34.859479		56.928605		97.830409		-30.372340		-7.693402		31.332092		90.023578		-27.649954		28.488811		83.212346		-66.887038		-26.807981		-17.888453		-90.000210		
1.127727		-4.408515		22.626105		93.941613		-0.012388		0.403269		0.367145		79.250354		-3.146740		2.572493		-148.516694		11.217437		-0.920850		33.808264		73.059428		-0.399469		-4.976868		-144.230440		21.732994		-17.797907		24.626436		-77.901570		1.996437		-0.267718		8.604443		-0.939768		-2.472959		99.383278		-25.818069		34.461086		56.996478		97.908971		-30.224586		-8.006735		31.153470		91.078197		-27.212012		29.026967		83.491887		-66.851323		-26.767029		-17.866809		-90.000210		
1.130379		-4.401772		22.379372		93.929173		-0.012458		0.401849		0.366698		79.645512		-3.051632		2.646568		-148.663230		11.299085		-0.923033		33.760655		73.409418		-0.330214		-5.157109		-144.388468		21.752088		-18.130192		24.346466		-78.014825		2.075601		-0.143049		8.789268		-0.996432		-2.416662		100.081827		-25.013109		34.137201		56.967993		97.903841		-30.128405		-8.247291		30.999662		91.936276		-26.511908		29.156780		83.601658		-66.864420		-26.641894		-17.896254		-90.000210		
1.133030		-4.443384		21.974176		93.912671		-0.012387		0.400176		0.366162		80.237431		-2.941304		2.734212		-148.846318		11.464773		-0.894361		33.545825		73.949989		-0.247670		-5.515266		-144.543926		21.538146		-19.298867		23.215448		-77.951098		2.094340		-0.195956		8.982285		-0.988429		-2.317044		100.595007		-24.058350		33.514889		56.836768		97.963295		-29.571336		-9.133423		30.545576		92.858670		-26.132001		29.583763		83.820696		-66.996730		-26.375169		-18.025336		-90.000210		
1.135682		-4.414205		21.680934		93.877317		-0.012407		0.399051		0.365808		80.622721		-2.834506		2.755978		-148.940707		11.608833		-0.915412		33.424226		74.302336		-0.177767		-5.716290		-144.651482		21.698211		-19.757846		22.648188		-78.044390		2.173782		-0.068610		9.233877		-1.108464		-2.307769		101.257252		-23.329879		33.295649		56.886136		97.866451		-29.380842		-9.377631		30.200231		93.673831		-25.554963		29.718561		83.972173		-67.185259		-26.198862		-18.066902		-90.000210		
1.138333		-4.381709		21.302196		93.827052		-0.012408		0.397946		0.365460		81.068910		-2.719532		2.764832		-149.006820		11.819622		-0.960583		33.134975		74.769461		-0.112512		-5.987566		-144.733220		21.621964		-20.644239		21.354286		-78.052117		2.236475		0.007219		9.428836		-1.178830		-2.254241		101.854053		-22.569004		33.002259		56.887867		97.648752		-28.898448		-9.911536		29.490393		94.475090		-25.143817		29.965444		84.208074		-67.635185		-25.865842		-18.175717		-90.000210		
1.140985		-4.328167		20.962406		93.764044		-0.012309		0.397209		0.365224		81.417489		-2.615294		2.694286		-149.013286		12.042530		-1.014927		33.084244		75.130506		-0.076870		-6.142137		-144.765675		21.817690		-20.960481		21.080295		-78.143142		2.289579		0.155890		9.736435		-1.265505		-2.286452		102.480970		-21.955722		32.875324		57.055591		97.525039		-28.823521		-10.088088		29.283846		95.240804		-24.626139		30.058655		84.410577		-67.782781		-25.748134		-18.152635		-90.000210		
1.143636		-4.253410		20.585744		93.688034		-0.012183		0.396619		0.365031		81.767478		-2.497126		2.611099		-148.983697		12.279411		-1.093242		33.009828		75.540904		-0.058051		-6.284165		-144.766771		21.878252		-21.383468		20.710845		-78.204235		2.336387		0.308283		9.993120		-1.327161		-2.299465		103.071244		-21.359001		32.755650		57.208361		97.335795		-28.702007		-10.336008		29.036844		95.978604		-24.166232		30.172710		84.636013		-68.000424		-25.594304		-18.112848		-90.000210		
1.146288		-4.156857		20.208950		93.604787		-0.012094		0.396076		0.364870		82.115842		-2.381751		2.485085		-148.941646		12.434499		-1.266981		32.766978		76.004131		-0.028674		-6.455060		-144.763362		21.569634		-22.276307		19.832505		-78.229079		2.400046		0.472210		10.124072		-1.398295		-2.220466		103.665497		-20.741408		32.719750		57.194069		96.790964		-28.403996		-10.835371		28.488498		96.636333		-23.705179		30.245558		84.753799		-68.572295		-25.190772		-18.097139		-90.000210		
1.148939		-4.081576		19.811984		93.527911		-0.011936		0.395682		0.364749		82.459259		-2.271668		2.356528		-148.876216		12.639578		-1.433594		32.537089		76.455066		-0.002021		-6.626728		-144.728348		21.367554		-23.103682		18.996827		-78.263628		2.447262		0.612951		10.382173		-1.462033		-2.179993		104.254562		-20.178502		32.708196		57.242612		96.286271		-28.126540		-11.311141		27.955437		97.285588		-23.286870		30.311376		84.913411		-69.114530		-24.822650		-18.084832		-90.000210		
